<?xml version="1.0" encoding="UTF-8"?><svg xmlns="http://www.w3.org/2000/svg" height="100px" viewBox="0 0 153.5 153.5" style="fill: #ffffff;"><g><rect x="68.44" width="17.65" height="17.65" rx="3.18" ry="3.18"></rect><rect x="67.62" y="135.45" width="17.65" height="17.65" rx="3.18" ry="3.18"></rect><rect x="27.46" y="124.07" width="17.65" height="17.65" rx="3.18" ry="3.18" transform="translate(-93.64 55.13) rotate(-45)"></rect><rect y="66.39" width="17.65" height="17.65" rx="3.18" ry="3.18"></rect><rect x="136.07" y="66.59" width="17.65" height="17.65" rx="3.18" ry="3.18"></rect><rect x="29.9" y="29.7" width="17.65" height="17.65" rx="3.18" ry="3.18" transform="translate(-26.2 29.21) rotate(-45)"></rect><rect x="126.73" y="29.67" width="17.65" height="17.65" rx="3.18" ry="3.18" transform="translate(2.19 97.68) rotate(-45)"></rect><path d="M87,52.65a33.78,33.78,0,0,1,31,47.26s3,19.95,3,19.95l-19.28-3h0A33.76,33.76,0,1,1,87,52.65m0-12.89a46.65,46.65,0,1,0,16.33,90.37l15.62,2.47,17.42,2.76-2.66-17.44c-0.77-5-1.88-12.38-2.51-16.54A46.68,46.68,0,0,0,87,39.76h0Z" transform="translate(-10.3 -9.45)"></path></g></svg>
